<?xml version="1.0" encoding="UTF-8" standalone="no"?>
<!-- Created with Inkscape (http://www.inkscape.org/) -->

<svg
   width="200mm"
   height="300mm"
   viewBox="0 0 200 300"
   version="1.1"
   id="svg180"
   inkscape:version="1.1.2 (b8e25be833, 2022-02-05)"
   sodipodi:docname="SpaceShip.svg"
   inkscape:export-filename="C:\DATEN\GameDev\UnityWorkspace\Black_Hole_Escape\Assets\Prefabs\SpaceShip\SpaceShip.png"
   inkscape:export-xdpi="96"
   inkscape:export-ydpi="96"
   xmlns:inkscape="http://www.inkscape.org/namespaces/inkscape"
   xmlns:sodipodi="http://sodipodi.sourceforge.net/DTD/sodipodi-0.dtd"
   xmlns:xlink="http://www.w3.org/1999/xlink"
   xmlns="http://www.w3.org/2000/svg"
   xmlns:svg="http://www.w3.org/2000/svg">
  <sodipodi:namedview
     id="namedview182"
     pagecolor="#ffffff"
     bordercolor="#666666"
     borderopacity="1.0"
     inkscape:pageshadow="2"
     inkscape:pageopacity="0.0"
     inkscape:pagecheckerboard="0"
     inkscape:document-units="mm"
     showgrid="false"
     showguides="false"
     width="209mm"
     inkscape:zoom="1"
     inkscape:cx="413.5"
     inkscape:cy="482"
     inkscape:window-width="1920"
     inkscape:window-height="1017"
     inkscape:window-x="-8"
     inkscape:window-y="-8"
     inkscape:window-maximized="1"
     inkscape:current-layer="layer1" />
  <defs
     id="defs177">
    <linearGradient
       inkscape:collect="always"
       id="linearGradient23925">
      <stop
         style="stop-color:#16171d;stop-opacity:1"
         offset="0"
         id="stop23921" />
      <stop
         style="stop-color:#00fffe;stop-opacity:0"
         offset="1"
         id="stop23923" />
    </linearGradient>
    <linearGradient
       id="linearGradient14738-7-1">
      <stop
         style="stop-color:#000000;stop-opacity:0.89558238;"
         offset="0"
         id="stop18101" />
      <stop
         style="stop-color:#333333;stop-opacity:0;"
         offset="1"
         id="stop18103" />
    </linearGradient>
    <linearGradient
       id="linearGradient14738-7">
      <stop
         style="stop-color:#000000;stop-opacity:0.89558238;"
         offset="0"
         id="stop18096" />
      <stop
         style="stop-color:#333333;stop-opacity:0;"
         offset="1"
         id="stop18098" />
    </linearGradient>
    <linearGradient
       id="linearGradient14738">
      <stop
         style="stop-color:#000000;stop-opacity:0.89558238;"
         offset="0"
         id="stop18091" />
      <stop
         style="stop-color:#333333;stop-opacity:0;"
         offset="1"
         id="stop18093" />
    </linearGradient>
    <linearGradient
       id="linearGradient16077">
      <stop
         style="stop-color:#000000;stop-opacity:1;"
         offset="0"
         id="stop16075" />
    </linearGradient>
    <linearGradient
       id="linearGradient14738-7-1-6">
      <stop
         style="stop-color:#000000;stop-opacity:0.89558238;"
         offset="0"
         id="stop15910" />
      <stop
         style="stop-color:#333333;stop-opacity:0;"
         offset="1"
         id="stop15912" />
    </linearGradient>
    <linearGradient
       id="linearGradient14738-9"
       inkscape:swatch="gradient">
      <stop
         style="stop-color:#000000;stop-opacity:0.03614458;"
         offset="0"
         id="stop14734" />
      <stop
         style="stop-color:#333333;stop-opacity:0;"
         offset="1"
         id="stop14736" />
    </linearGradient>
    <linearGradient
       id="linearGradient13324"
       inkscape:swatch="gradient">
      <stop
         style="stop-color:#00ffff;stop-opacity:1;"
         offset="0"
         id="stop13320" />
      <stop
         style="stop-color:#00ffff;stop-opacity:0;"
         offset="1"
         id="stop13322" />
    </linearGradient>
    <linearGradient
       inkscape:collect="always"
       xlink:href="#linearGradient13324"
       id="linearGradient13326"
       x1="329.51175"
       y1="548.71484"
       x2="151.32085"
       y2="434.87067"
       gradientUnits="userSpaceOnUse" />
    <linearGradient
       inkscape:collect="always"
       xlink:href="#linearGradient13324"
       id="linearGradient13636"
       gradientUnits="userSpaceOnUse"
       x1="329.51175"
       y1="548.71484"
       x2="151.32085"
       y2="434.87067"
       gradientTransform="matrix(-0.26458333,0,0,0.26458333,200.98217,0.18708867)" />
    <radialGradient
       inkscape:collect="always"
       xlink:href="#linearGradient14738-7-1"
       id="radialGradient18893"
       cx="729.79266"
       cy="796.00873"
       fx="729.79266"
       fy="796.00873"
       r="111.89589"
       gradientTransform="matrix(0.15639572,0.07596336,-0.78483526,1.6158366,953.09919,-662.15743)"
       gradientUnits="userSpaceOnUse" />
    <radialGradient
       inkscape:collect="always"
       xlink:href="#linearGradient14738-7-1"
       id="radialGradient20345"
       gradientUnits="userSpaceOnUse"
       gradientTransform="matrix(0.22789076,-0.10724262,0.7648787,1.6253784,-341.65161,-649.04501)"
       cx="114.8097"
       cy="830.1806"
       fx="114.8097"
       fy="830.1806"
       r="111.89589" />
    <radialGradient
       inkscape:collect="always"
       xlink:href="#linearGradient14738-7-1"
       id="radialGradient20861"
       gradientUnits="userSpaceOnUse"
       gradientTransform="matrix(0.1563957,0.15639532,-1.2702165,1.2702143,1302.1978,-456.00389)"
       cx="141.65291"
       cy="766.28809"
       fx="141.65291"
       fy="766.28809"
       r="111.89589" />
    <radialGradient
       inkscape:collect="always"
       xlink:href="#linearGradient14738-7"
       id="radialGradient20993"
       gradientUnits="userSpaceOnUse"
       gradientTransform="matrix(0.24129606,-0.24576428,1.2818102,1.2585138,-618.12624,-259.91418)"
       cx="447.3533"
       cy="722.16742"
       fx="447.3533"
       fy="722.16742"
       r="111.89589" />
    <linearGradient
       inkscape:collect="always"
       xlink:href="#linearGradient23925"
       id="linearGradient23927"
       x1="379.41196"
       y1="95.624504"
       x2="379"
       y2="470"
       gradientUnits="userSpaceOnUse" />
  </defs>
  <g
     inkscape:label="Base"
     inkscape:groupmode="layer"
     id="layer1"
     sodipodi:insensitive="true"
     style="display:inline;opacity:1">
    <path
       style="fill:none;stroke:#000000;stroke-width:0.264583px;stroke-linecap:butt;stroke-linejoin:miter;stroke-opacity:1"
       d="M 1.9188999,98.129715 C 1.2897494,77.967247 1.9618907,90.068594 1.5108022,72.029251 35.97349,84.769595 25.635751,92.377148 40.708371,106.12851 87.572856,149.09374 87.772693,102.5016 84.593663,75.884152 81.414633,49.266701 87.022867,39.844957 100.32286,19.527418 c 13.29999,20.333334 18.90822,29.755078 15.72919,56.372529 -3.17903,26.617443 -2.97919,73.209583 43.88529,30.244353 15.07262,-13.751357 4.73488,-21.35891 39.19757,-34.099254 -0.45109,18.039343 0.22106,5.937996 -0.4081,26.100464 C 189.9631,120.4217 160.75385,190.9051 100.32286,225.56892 39.891867,190.88931 10.682615,120.40591 1.9188999,98.129715 Z"
       id="path271"
       sodipodi:nodetypes="ccczczccccc" />
    <path
       style="fill:#333333;stroke-width:0.707107"
       d="M 368.66482,845.21279 C 258.69668,778.80327 161.8957,672.12624 82.933634,530.33008 59.021904,487.39059 36.249904,439.68813 15.93015,389.97213 l -8.2355582,-20.1498 -0.5380192,-48.086 c -0.2959105,-26.4473 -0.5157529,-48.12685 -0.4885387,-48.17676 0.1189708,-0.21822 26.1998671,10.43471 32.9299461,13.45046 18.286222,8.1941 35.902906,18.54388 47.52915,27.92334 11.800078,9.5197 19.10891,19.10582 31.33234,41.09489 12.55961,22.59383 21.26063,33.68601 38.57043,49.17016 38.73753,34.65189 68.41633,53.65238 94.64296,60.5908 5.02163,1.3285 7.835,1.59902 16.32061,1.56931 9.25289,-0.0324 10.71805,-0.21317 15.02004,-1.85304 7.13058,-2.71811 12.18734,-6.05635 17.19724,-11.35283 11.78781,-12.46209 19.0412,-32.5009 22.97632,-63.47616 0.41997,-3.30573 0.93955,-16.89489 1.15464,-30.19813 0.42805,-26.47449 -0.18642,-39.99904 -3.01326,-66.32195 -3.452,-32.14427 -3.98576,-41.24155 -3.60942,-61.51829 0.26735,-14.40453 0.72248,-21.52236 1.85381,-28.99138 5.36175,-35.39842 17.16176,-62.05889 50.61413,-114.355546 4.65779,-7.281603 8.6789,-13.247817 8.9358,-13.258252 0.58716,-0.02385 18.1871,27.445978 26.03786,40.639668 33.35502,56.05518 40.86888,94.36837 32.84128,167.45756 -6.24158,56.82795 -5.98879,97.59666 0.7945,128.13494 4.74056,21.34189 12.92099,37.39548 23.40922,45.93913 8.01614,6.5299 14.50796,8.85608 26.0516,9.33494 6.74704,0.27988 9.86139,0.0655 15.2028,-1.04675 20.36179,-4.23978 45.5142,-18.12083 73.80901,-40.73352 22.12858,-17.68475 40.45159,-35.43729 48.98178,-47.45679 4.76326,-6.71169 7.05214,-10.51735 18.2872,-30.4056 6.45658,-11.42942 10.11399,-16.46267 17.63803,-24.27314 11.74244,-12.18945 23.98334,-20.44337 47.4056,-31.96511 13.2048,-6.49561 39.35877,-17.6544 41.37848,-17.6544 0.64318,0 0.35581,58.93075 -0.40617,83.2916 l -0.42666,13.64159 -6.93948,17.11756 c -47.6837,117.62091 -107.68707,220.11918 -177.87606,303.84935 -26.5084,31.62253 -59.86777,65.54547 -88.86474,90.36601 -27.3753,23.43243 -58.40689,45.93476 -87.2761,63.28759 l -9.99087,6.00531 z"
       id="path13115"
       transform="scale(0.26458333)" />
  </g>
  <g
     inkscape:label="Base Details"
     inkscape:groupmode="layer"
     id="g22746"
     style="display:inline"
     sodipodi:insensitive="true">
    <path
       style="fill:none;stroke:#000000;stroke-width:0.264583px;stroke-linecap:butt;stroke-linejoin:miter;stroke-opacity:1"
       d="M 1.9188999,98.129715 C 1.2897494,77.967247 1.9618907,90.068594 1.5108022,72.029251 35.97349,84.769595 25.635751,92.377148 40.708371,106.12851 87.572856,149.09374 87.772693,102.5016 84.593663,75.884152 81.414633,49.266701 87.022867,39.844957 100.32286,19.527418 c 13.29999,20.333334 18.90822,29.755078 15.72919,56.372529 -3.17903,26.617443 -2.97919,73.209583 43.88529,30.244353 15.07262,-13.751357 4.73488,-21.35891 39.19757,-34.099254 -0.45109,18.039343 0.22106,5.937996 -0.4081,26.100464 C 189.9631,120.4217 160.75385,190.9051 100.32286,225.56892 39.891867,190.88931 10.682615,120.40591 1.9188999,98.129715 Z"
       id="path22742"
       sodipodi:nodetypes="ccczczccccc" />
    <path
       style="fill:url(#linearGradient23927);fill-opacity:1;stroke-width:0.707107"
       d="M 368.66482,845.21279 C 258.69668,778.80327 161.8957,672.12624 82.933634,530.33008 59.021904,487.39059 36.249904,439.68813 15.93015,389.97213 l -8.2355582,-20.1498 -0.5380192,-48.086 c -0.2959105,-26.4473 -0.5157529,-48.12685 -0.4885387,-48.17676 0.1189708,-0.21822 26.1998671,10.43471 32.9299461,13.45046 18.286222,8.1941 35.902906,18.54388 47.52915,27.92334 11.800078,9.5197 19.10891,19.10582 31.33234,41.09489 12.55961,22.59383 21.26063,33.68601 38.57043,49.17016 38.73753,34.65189 68.41633,53.65238 94.64296,60.5908 5.02163,1.3285 7.835,1.59902 16.32061,1.56931 9.25289,-0.0324 10.71805,-0.21317 15.02004,-1.85304 7.13058,-2.71811 12.18734,-6.05635 17.19724,-11.35283 11.78781,-12.46209 19.0412,-32.5009 22.97632,-63.47616 0.41997,-3.30573 0.93955,-16.89489 1.15464,-30.19813 0.42805,-26.47449 -0.18642,-39.99904 -3.01326,-66.32195 -3.452,-32.14427 -3.98576,-41.24155 -3.60942,-61.51829 0.26735,-14.40453 0.72248,-21.52236 1.85381,-28.99138 5.36175,-35.39842 17.16176,-62.05889 50.61413,-114.355546 4.65779,-7.281603 8.6789,-13.247817 8.9358,-13.258252 0.58716,-0.02385 18.1871,27.445978 26.03786,40.639668 33.35502,56.05518 40.86888,94.36837 32.84128,167.45756 -6.24158,56.82795 -5.98879,97.59666 0.7945,128.13494 4.74056,21.34189 12.92099,37.39548 23.40922,45.93913 8.01614,6.5299 14.50796,8.85608 26.0516,9.33494 6.74704,0.27988 9.86139,0.0655 15.2028,-1.04675 20.36179,-4.23978 45.5142,-18.12083 73.80901,-40.73352 22.12858,-17.68475 40.45159,-35.43729 48.98178,-47.45679 4.76326,-6.71169 7.05214,-10.51735 18.2872,-30.4056 6.45658,-11.42942 10.11399,-16.46267 17.63803,-24.27314 11.74244,-12.18945 23.98334,-20.44337 47.4056,-31.96511 13.2048,-6.49561 39.35877,-17.6544 41.37848,-17.6544 0.64318,0 0.35581,58.93075 -0.40617,83.2916 l -0.42666,13.64159 -6.93948,17.11756 c -47.6837,117.62091 -107.68707,220.11918 -177.87606,303.84935 -26.5084,31.62253 -59.86777,65.54547 -88.86474,90.36601 -27.3753,23.43243 -58.40689,45.93476 -87.2761,63.28759 l -9.99087,6.00531 z"
       id="path22744"
       transform="scale(0.26458333)" />
  </g>
  <g
     inkscape:label="Outline"
     inkscape:groupmode="layer"
     id="g9105"
     style="display:inline"
     sodipodi:insensitive="true">
    <path
       style="fill:none;stroke:#000000;stroke-width:0.221503px;stroke-linecap:butt;stroke-linejoin:miter;stroke-opacity:1"
       d="M 18.004237,116.37698 C 17.477524,99.497359 8.040642,99.628181 7.663,84.526 c 28.851478,10.665961 30.196513,27.03505 42.815011,38.54742 39.234015,35.96964 39.401315,-3.03638 36.739894,-25.319985 -2.661421,-22.283601 2.033682,-55.443344 13.168175,-72.452785 11.13449,17.022663 15.82958,50.182407 13.16816,72.466009 -2.66142,22.283601 -2.49411,61.289611 36.7399,25.319981 12.6185,-11.51237 13.96339,-27.881672 42.81486,-38.54764 -0.37764,15.102178 -9.81437,14.971589 -10.34109,31.85121 -7.3368,18.64918 -31.79021,77.65648 -82.38183,106.67634 C 49.79445,194.03347 25.341045,135.02617 18.004237,116.37698 Z"
       id="path9103"
       sodipodi:nodetypes="ccczczccccc" />
    <path
       style="fill:#4d4d4d;stroke-width:0.955164"
       d="M 368.6933,835.46964 C 307.50718,797.82039 253.76466,748.23553 203.37657,682.94226 154.71727,619.88915 112.57919,545.18792 76.343981,457.7424 c -6.47486,-15.62561 -7.116166,-17.78824 -8.07248,-27.22217 -2.235364,-22.0516 -5.826926,-31.77369 -21.118569,-57.16642 -8.202628,-13.62098 -11.597694,-21.07405 -14.305841,-31.4051 -2.277012,-8.68636 -3.409205,-20.53603 -1.962143,-20.53603 1.921467,0 23.366957,9.54495 33.588622,14.94961 19.814799,10.47698 35.87295,22.12052 50.78003,36.81987 11.052,10.898 20.54393,22.73321 36.61748,45.65725 6.78109,9.67117 15.61073,21.68675 19.62143,26.7013 18.74324,23.43453 56.70978,54.33564 81.62595,66.43566 14.56947,7.07538 20.37361,8.58801 32.95316,8.58801 10.00715,0 11.45193,-0.22989 16.23976,-2.58404 17.02421,-8.37069 27.12267,-29.86063 30.58669,-65.08978 1.73787,-17.67398 0.74276,-56.34249 -2.05614,-79.89902 -1.92635,-16.21286 -2.21643,-23.14204 -2.23927,-53.48918 -0.0276,-36.6391 0.6379,-47.27073 4.87269,-77.84587 7.73838,-55.8711 24.16901,-108.96929 43.16158,-139.48357 l 2.83555,-4.55572 2.65511,4.203 c 4.48946,7.10675 15.32334,30.32715 19.86402,42.57481 15.35066,41.40571 25.32449,94.3669 28.38986,150.75067 1.3311,24.48392 0.60855,46.78044 -2.52272,77.84586 -7.47868,74.19638 -0.96196,120.36639 19.59776,138.84725 9.74748,8.7619 23.54022,11.36672 39.2081,7.40465 20.69967,-5.2345 48.54066,-23.05238 79.0109,-50.56599 12.55362,-11.33547 20.47623,-20.59616 33.96256,-39.69856 32.84018,-46.51569 47.56818,-62.58124 73.1242,-79.76508 13.68499,-9.20176 45.07163,-25.13852 53.84647,-27.34086 2.4053,-0.60369 2.43518,-0.54438 2.01484,4.0005 -1.57441,17.02342 -5.7109,28.72833 -16.48266,46.64051 -14.95914,24.87532 -19.27796,36.1577 -21.13505,55.21282 -0.9277,9.51881 -1.67783,12.31983 -6.82869,25.49854 -19.06442,48.77715 -52.03446,114.48975 -79.60979,158.67031 -54.98129,88.08977 -116.89532,156.26288 -186.13641,204.95352 -10.68875,7.51639 -38.07212,25.1707 -38.94271,25.10674 -0.15849,-0.0117 -5.01622,-2.93046 -10.79497,-6.48625 z"
       id="path9773"
       transform="scale(0.26458333)" />
  </g>
  <g
     inkscape:groupmode="layer"
     id="layer3"
     inkscape:label="Details"
     style="display:inline"
     sodipodi:insensitive="true">
    <ellipse
       style="fill:#e6e6e6;stroke-width:0.202812"
       id="path9909"
       cx="100.70911"
       cy="63.559204"
       rx="7.707974"
       ry="26.914732" />
    <ellipse
       style="fill:#c6ffff;fill-opacity:1;stroke-width:0.264583"
       id="path13660"
       cx="100.67684"
       cy="145.51648"
       rx="13.37684"
       ry="14.546144" />
    <path
       style="fill:url(#linearGradient13326);fill-opacity:1;stroke-width:0.477582"
       d="m 250.73055,540.84494 c -56.47407,-30.16301 -102.8445,-54.9109 -103.04539,-54.9953 -0.37101,-0.15588 -8.11963,-79.35217 -7.88273,-80.56699 0.071,-0.36412 2.16939,2.10736 4.66307,5.49219 2.49369,3.38484 7.01463,9.27047 10.04654,13.07918 3.03191,3.80872 7.7411,9.91206 10.46487,13.56298 7.8376,10.50542 11.4936,14.71204 21.23387,24.43178 22.87582,22.82762 50.39959,43.08013 71.29097,52.45725 11.53137,5.17586 17.91687,6.54796 30.09902,6.46761 8.32078,-0.0549 10.45564,-0.45376 15.18622,-2.83733 10.52717,-5.30428 18.81326,-16.2814 23.85109,-31.5971 2.01936,-6.13913 4.68686,-17.87736 5.30024,-23.32346 1.41339,-12.54935 1.49931,-13.83676 1.94428,-29.1325 0.16429,-5.64741 0.32844,-10.3052 0.36479,-10.35065 0.10769,-0.13466 19.91299,170.50261 19.89559,171.41517 -0.009,0.45968 -0.17711,0.814 -0.37411,0.78739 -0.19701,-0.0266 -46.56425,-24.7272 -103.03832,-54.89022 z"
       id="path11307"
       transform="scale(0.26458333)" />
    <path
       style="fill:url(#linearGradient13636);fill-opacity:1;stroke-width:0.12636"
       d="m 134.64305,143.28565 c 14.9421,-7.98063 27.21094,-14.52851 27.26409,-14.55084 0.0982,-0.0412 2.14832,-20.99527 2.08564,-21.31669 -0.0188,-0.0963 -0.57399,0.55758 -1.23377,1.45315 -0.65979,0.89557 -1.85596,2.45281 -2.65815,3.46053 -0.80219,1.00772 -2.04816,2.62256 -2.76883,3.58854 -2.0737,2.77956 -3.04101,3.89256 -5.61813,6.46424 -6.05256,6.03981 -13.33489,11.39828 -18.8624,13.87931 -3.05101,1.36945 -4.7405,1.73248 -7.9637,1.71122 -2.20154,-0.0145 -2.76639,-0.12005 -4.01802,-0.75071 -2.78531,-1.40342 -4.97767,-4.30778 -6.3106,-8.36006 -0.53429,-1.62431 -1.24006,-4.73005 -1.40235,-6.171 -0.37396,-3.32035 -0.3967,-3.66098 -0.51443,-7.70797 -0.0435,-1.49422 -0.0869,-2.72659 -0.0965,-2.73861 -0.0285,-0.0356 -5.26864,45.11214 -5.26404,45.35359 0.002,0.12163 0.0469,0.21537 0.099,0.20833 0.0521,-0.007 12.32013,-6.5424 27.26222,-14.52303 z"
       id="path13634" />
    <path
       style="fill:url(#radialGradient18893);fill-opacity:1;fill-rule:nonzero;stroke:none;stroke-width:0.500787;stroke-miterlimit:4;stroke-dasharray:none;stroke-opacity:0.895582"
       d="m 322.74618,723.62901 c -31.01869,-64.41654 -56.4198,-117.37191 -56.4469,-117.6786 -0.0271,-0.30669 7.92473,-8.9102 17.67074,-19.11891 l 17.72001,-18.56129 3.02999,1.67797 c 1.66649,0.92288 12.45543,6.68328 23.97543,12.80089 11.52,6.11761 22.095,12.00752 23.5,13.08868 3.78404,2.91186 11.93856,6.7335 17.05455,7.99266 6.34337,1.56125 16.15662,1.56125 22.5,0 5.00922,-1.23288 13.16885,-5.04436 16.99934,-7.94063 1.37464,-1.03938 12.61356,-7.29376 24.97538,-13.89861 l 22.47603,-12.00883 10.26778,10.50883 c 5.64727,5.77985 13.27258,13.57694 16.94512,17.32687 l 6.67735,6.81803 -55.1705,118.04292 c -30.34378,64.9236 -55.3069,118.04924 -55.4736,118.05696 -0.16671,0.008 -25.68203,-52.69039 -56.70072,-117.10694 z"
       id="path18848"
       transform="scale(0.26458333)" />
    <path
       style="fill:url(#radialGradient20345);fill-opacity:1;fill-rule:nonzero;stroke:none;stroke-width:0.500787;stroke-miterlimit:4;stroke-dasharray:none;stroke-opacity:0.895582"
       d="m 322.74618,723.62901 c -31.01869,-64.41654 -56.4198,-117.37191 -56.4469,-117.6786 -0.0271,-0.30669 7.92473,-8.9102 17.67074,-19.11891 l 17.72001,-18.56129 3.02999,1.67797 c 1.66649,0.92288 12.45543,6.68328 23.97543,12.80089 11.52,6.11761 22.095,12.00752 23.5,13.08868 3.78404,2.91186 11.93856,6.7335 17.05455,7.99266 6.34337,1.56125 16.15662,1.56125 22.5,0 5.00922,-1.23288 13.16885,-5.04436 16.99934,-7.94063 1.37464,-1.03938 12.61356,-7.29376 24.97538,-13.89861 l 22.47603,-12.00883 10.26778,10.50883 c 5.64727,5.77985 13.27258,13.57694 16.94512,17.32687 l 6.67735,6.81803 -55.1705,118.04292 c -30.34378,64.9236 -55.3069,118.04924 -55.4736,118.05696 -0.16671,0.008 -25.68203,-52.69039 -56.70072,-117.10694 z"
       id="path20181"
       transform="scale(0.26458333)" />
    <path
       style="fill:url(#radialGradient20861);fill-opacity:1;fill-rule:nonzero;stroke:none;stroke-width:0.500787;stroke-miterlimit:4;stroke-dasharray:none;stroke-opacity:0.895582"
       d="m 322.74618,723.62901 c -31.01869,-64.41654 -56.4198,-117.37191 -56.4469,-117.6786 -0.0271,-0.30669 7.92473,-8.9102 17.67074,-19.11891 l 17.72001,-18.56129 3.02999,1.67797 c 1.66649,0.92288 12.45543,6.68328 23.97543,12.80089 11.52,6.11761 22.095,12.00752 23.5,13.08868 3.78404,2.91186 11.93856,6.7335 17.05455,7.99266 6.34337,1.56125 16.15662,1.56125 22.5,0 5.00922,-1.23288 13.16885,-5.04436 16.99934,-7.94063 1.37464,-1.03938 12.61356,-7.29376 24.97538,-13.89861 l 22.47603,-12.00883 10.26778,10.50883 c 5.64727,5.77985 13.27258,13.57694 16.94512,17.32687 l 6.67735,6.81803 -55.1705,118.04292 c -30.34378,64.9236 -55.3069,118.04924 -55.4736,118.05696 -0.16671,0.008 -25.68203,-52.69039 -56.70072,-117.10694 z"
       id="path20633"
       transform="scale(0.26458333)" />
    <path
       style="fill:url(#radialGradient20993);fill-opacity:1;fill-rule:nonzero;stroke:none;stroke-width:0.500787;stroke-miterlimit:4;stroke-dasharray:none;stroke-opacity:0.895582"
       d="m 322.74618,723.62901 c -31.01869,-64.41654 -56.4198,-117.37191 -56.4469,-117.6786 -0.0271,-0.30669 7.92473,-8.9102 17.67074,-19.11891 l 17.72001,-18.56129 3.02999,1.67797 c 1.66649,0.92288 12.45543,6.68328 23.97543,12.80089 11.52,6.11761 22.095,12.00752 23.5,13.08868 3.78404,2.91186 11.93856,6.7335 17.05455,7.99266 6.34337,1.56125 16.15662,1.56125 22.5,0 5.00922,-1.23288 13.16885,-5.04436 16.99934,-7.94063 1.37464,-1.03938 12.61356,-7.29376 24.97538,-13.89861 l 22.47603,-12.00883 10.26778,10.50883 c 5.64727,5.77985 13.27258,13.57694 16.94512,17.32687 l 6.67735,6.81803 -55.1705,118.04292 c -30.34378,64.9236 -55.3069,118.04924 -55.4736,118.05696 -0.16671,0.008 -25.68203,-52.69039 -56.70072,-117.10694 z"
       id="path20991"
       transform="scale(0.26458333)" />
  </g>
</svg>
