<?xml version="1.0" encoding="UTF-8" standalone="no"?>
<!-- Created with Inkscape (http://www.inkscape.org/) -->

<svg
   width="210mm"
   height="297mm"
   viewBox="0 0 210 297"
   version="1.1"
   id="svg5"
   inkscape:version="1.1.2 (b8e25be833, 2022-02-05)"
   sodipodi:docname="shieldOrb.svg"
   xmlns:inkscape="http://www.inkscape.org/namespaces/inkscape"
   xmlns:sodipodi="http://sodipodi.sourceforge.net/DTD/sodipodi-0.dtd"
   xmlns="http://www.w3.org/2000/svg"
   xmlns:svg="http://www.w3.org/2000/svg">
  <sodipodi:namedview
     id="namedview7"
     pagecolor="#ffffff"
     bordercolor="#666666"
     borderopacity="1.0"
     inkscape:pageshadow="2"
     inkscape:pageopacity="0.0"
     inkscape:pagecheckerboard="0"
     inkscape:document-units="mm"
     showgrid="false"
     inkscape:zoom="1.0469406"
     inkscape:cx="526.77294"
     inkscape:cy="561.63643"
     inkscape:window-width="1920"
     inkscape:window-height="1017"
     inkscape:window-x="-8"
     inkscape:window-y="-8"
     inkscape:window-maximized="1"
     inkscape:current-layer="layer1" />
  <defs
     id="defs2">
    <rect
       x="333.64905"
       y="352.56033"
       width="156.69348"
       height="266.10876"
       id="rect3200" />
    <rect
       x="333.64905"
       y="352.56033"
       width="156.69348"
       height="266.10876"
       id="rect3200-5" />
  </defs>
  <g
     inkscape:label="Layer 1"
     inkscape:groupmode="layer"
     id="layer1">
    <path
       style="fill:#ffffff;stroke:#2d3200;stroke-width:3.02362;stroke-linecap:round;paint-order:markers stroke fill"
       id="path848"
       sodipodi:type="arc"
       sodipodi:cx="99.089363"
       sodipodi:cy="116.24458"
       sodipodi:rx="49.915073"
       sodipodi:ry="49.915073"
       sodipodi:start="6.2592917"
       sodipodi:end="6.2557313"
       sodipodi:open="true"
       sodipodi:arc-type="arc"
       d="m 148.99019,115.05205 a 49.915073,49.915073 0 0 1 -48.66387,51.09228 49.915073,49.915073 0 0 1 -51.135581,-48.61838 49.915073,49.915073 0 0 1 48.57284,-51.17883 49.915073,49.915073 0 0 1 51.222051,48.52727"
       inkscape:export-filename="C:\DATEN\GameDev\UnityWorkspace\Black_Hole_Escape\Assets\Prefabs\Orbs\shieldOrb.png"
       inkscape:export-xdpi="96"
       inkscape:export-ydpi="96" />
    <path
       style="fill:none;stroke:#000000;stroke-width:0.264583px;stroke-linecap:butt;stroke-linejoin:miter;stroke-opacity:1"
       d="M 99.8935,83.989169 C 89.887589,98.727518 85.932528,95.698336 62.187725,86.848373 65.753397,117.81615 100.6083,155.82671 100.6083,155.82671 c 0,0 33.29854,-28.83151 36.99097,-67.727433 -15.57797,9.71828 -27.0887,8.399826 -37.70577,-4.110108 z"
       id="path18839"
       sodipodi:nodetypes="ccccc"
       inkscape:export-filename="C:\DATEN\GameDev\UnityWorkspace\Black_Hole_Escape\Assets\Prefabs\Orbs\shieldOrb.png"
       inkscape:export-xdpi="96"
       inkscape:export-ydpi="96" />
    <path
       style="fill:#00ffff;stroke:#2d3200;stroke-width:2.04216;stroke-linecap:round;paint-order:markers stroke fill"
       d="M 372.92906,579.19154 C 362.4589,567.10287 348.71674,550.01347 337.31482,534.90256 289.13151,471.04552 257.1664,412.56667 242.81055,362.01091 c -3.606,-12.69895 -7.3259,-32.07657 -6.15769,-32.07657 0.14401,0 9.64186,3.51883 21.10634,7.81963 39.94953,14.98672 54.87822,19.20699 67.86987,19.1865 8.06556,-0.0127 13.57888,-1.32606 20.34595,-4.84668 8.34558,-4.34185 18.24533,-14.27302 28.32051,-28.41038 l 3.16162,-4.43634 8.99563,8.8895 c 9.42347,9.31228 13.6395,12.66744 23.22784,18.48499 28.64746,17.38133 64.04329,14.42586 103.74345,-8.66233 2.47938,-1.44192 4.72486,-2.62167 4.98995,-2.62167 0.67141,0 -0.13868,7.22089 -2.14,19.07516 -12.49513,74.01163 -56.96106,154.01689 -122.18911,219.84863 -7.08525,7.15083 -13.17219,13.00006 -13.52652,12.99829 -0.35433,-0.002 -3.78753,-3.63241 -7.62933,-8.0681 z m 30.02917,-53.74313 c 24.91097,-4.2701 42.65312,-18.51975 47.9148,-38.48289 1.39911,-5.30831 1.38271,-17.52404 -0.0308,-22.9637 -3.26069,-12.548 -11.11043,-20.79321 -25.45289,-26.73518 -6.80777,-2.8204 -14.91355,-4.7783 -34.66874,-8.37402 -28.27287,-5.14606 -34.5913,-7.85557 -39.40253,-16.89683 -1.61728,-3.0392 -1.79705,-4.08642 -1.79705,-10.46874 0,-6.01685 0.22544,-7.51314 1.48737,-9.87201 3.45718,-6.46232 9.73045,-11.24844 18.66842,-14.24284 5.24776,-1.75811 6.13524,-1.84611 18.67988,-1.85216 11.58511,-0.006 13.94266,0.18532 19.58669,1.58601 12.96906,3.21857 23.41566,7.62021 31.60744,13.31771 2.3395,1.62715 4.70139,2.95845 5.24865,2.95845 0.84894,0 0.96814,-1.95236 0.8119,-13.2981 l -0.18313,-13.29809 -3.86155,-1.55179 c -6.58595,-2.64661 -19.15169,-6.22657 -27.06773,-7.71155 -10.79816,-2.02565 -33.38287,-2.55798 -42.35194,-0.99824 -14.52896,2.5266 -24.78665,7.61766 -34.11812,16.93339 -9.68304,9.6667 -12.94129,18.17876 -12.2802,32.08164 0.80963,17.02709 8.27495,28.53107 23.43462,36.11253 8.25152,4.12666 15.7366,6.12392 35.45865,9.46156 23.79755,4.02734 32.12842,6.65858 37.88638,11.96608 4.22978,3.89888 5.91034,8.33547 5.96771,15.75447 0.0431,5.57165 -0.14253,6.47732 -2.17278,10.60204 -3.57172,7.25645 -10.56814,12.36654 -21.08633,15.40116 -7.33691,2.1168 -22.98085,2.60838 -32.5031,1.02137 -14.22652,-2.37105 -30.11553,-8.8133 -41.04478,-16.64173 -3.05601,-2.18897 -5.99272,-3.97994 -6.52602,-3.97994 -0.81169,0 -0.96964,2.30208 -0.96964,14.13225 v 14.13224 l 6.92288,2.67354 c 14.47526,5.59017 26.12917,8.57173 38.32912,9.80618 7.20902,0.72944 27.9876,0.37429 33.51282,-0.57281 z"
       id="path20078"
       transform="scale(0.26458333)"
       inkscape:export-filename="C:\DATEN\GameDev\UnityWorkspace\Black_Hole_Escape\Assets\Prefabs\Orbs\shieldOrb.png"
       inkscape:export-xdpi="96"
       inkscape:export-ydpi="96" />
    <path
       style="fill:#808080;stroke:#2d3200;stroke-width:2.04216;stroke-linecap:round;paint-order:markers stroke fill"
       d="m 362.01598,627.36376 c -8.09166,-0.59814 -23.74879,-3.05472 -31.44047,-4.93296 -34.52652,-8.43106 -64.26914,-25.25591 -89.48506,-50.62005 -28.48612,-28.65354 -46.17482,-63.56634 -52.73973,-104.09421 -1.97763,-12.20869 -2.46763,-36.30153 -0.99589,-48.96672 4.13615,-35.594 17.17331,-67.27649 39.60423,-96.24492 5.99627,-7.74389 21.78859,-23.68887 29.69406,-29.98109 61.52155,-48.96707 146.31836,-55.08393 213.26599,-15.38404 45.24173,26.82831 77.3767,71.10881 88.55404,122.02337 3.1798,14.48449 3.77519,20.82234 3.77519,40.18647 0,19.36414 -0.59539,25.70199 -3.77519,40.18648 -6.00851,27.36968 -18.32635,53.30363 -36.41034,76.65823 -5.99629,7.7439 -21.7886,23.68887 -29.69407,29.9811 -32.87122,26.16331 -72.14736,40.38528 -113.80539,41.20915 -7.05796,0.13958 -14.50428,0.13022 -16.54737,-0.0208 z m 26.24074,-44.57568 c 14.23877,-13.46792 32.74446,-34.13072 47.2035,-52.7058 42.10497,-54.09088 69.66164,-110.90451 80.86305,-166.7155 2.51208,-12.51648 4.96233,-30.40603 4.26067,-31.10769 -0.24192,-0.24192 -2.98876,1.09976 -6.10409,2.98152 -3.11533,1.88174 -10.00057,5.53908 -15.30053,8.12742 -33.55707,16.38819 -62.58873,17.03071 -88.19663,1.95194 -8.57031,-5.04647 -14.73813,-10.02639 -24.22201,-19.55692 -5.14973,-5.17506 -9.45445,-9.31692 -9.56605,-9.20414 -0.1116,0.11279 -2.46261,3.33535 -5.22445,7.16125 -2.76185,3.8259 -7.11916,9.30946 -9.68293,12.18569 -19.33482,21.69127 -34.41315,24.2725 -70.85088,12.12881 -5.57208,-1.85702 -20.58829,-7.29715 -33.36937,-12.08917 -12.78108,-4.79202 -23.38195,-8.71277 -23.55749,-8.71277 -1.33084,0 3.47491,24.49513 7.56142,38.54097 16.46252,56.58364 57.97995,127.61738 116.2305,198.86317 9.20388,11.25719 21.39408,25.32761 21.9431,25.32761 0.23378,0 3.83926,-3.22937 8.01219,-7.17639 z"
       id="path20308"
       transform="scale(0.26458333)"
       inkscape:export-filename="C:\DATEN\GameDev\UnityWorkspace\Black_Hole_Escape\Assets\Prefabs\Orbs\shieldOrb.png"
       inkscape:export-xdpi="96"
       inkscape:export-ydpi="96" />
    <rect
       style="fill:#ffffff;stroke:#2d3200;stroke-width:0.799999;stroke-linecap:round;paint-order:markers stroke fill"
       id="rect20516"
       width="37.90807"
       height="37.90807"
       x="155.17036"
       y="168.81728"
       inkscape:export-filename="C:\DATEN\GameDev\UnityWorkspace\Black_Hole_Escape\Assets\Prefabs\Background\white.png"
       inkscape:export-xdpi="96"
       inkscape:export-ydpi="96" />
  </g>
  <g
     inkscape:groupmode="layer"
     id="layer2"
     inkscape:label="S">
    <text
       xml:space="preserve"
       transform="matrix(0.26458333,0,0,0.26458333,-6.2577221,-9.5034084)"
       id="text3198"
       style="font-style:normal;font-weight:normal;font-size:226.667px;line-height:1.25;font-family:sans-serif;white-space:pre;shape-inside:url(#rect3200-5);fill:#000000;fill-opacity:1;stroke:none"
       inkscape:export-filename="C:\DATEN\GameDev\UnityWorkspace\Black_Hole_Escape\Assets\Prefabs\Orbs\shieldOrb.png"
       inkscape:export-xdpi="96"
       inkscape:export-ydpi="96"><tspan
         x="333.64844"
         y="559.35573"
         id="tspan20576">S</tspan></text>
  </g>
</svg>
